<svg id="Layer_1" data-name="Layer 1" xmlns="http://www.w3.org/2000/svg" viewBox="0 0 1444.28 204">
  <defs>
    <style>
      .cls-1, .cls-5 {
        fill: #13bde6;
      }

      .cls-1, .cls-2, .cls-3 {
        fill-rule: evenodd;
      }

      .cls-2 {
        fill: #d3d4d3;
      }

      .cls-3, .cls-4 {
        fill: #fff;
      }

      .cls-6 {
        fill: #878787;
      }

      .cls-7 {
        fill: #0ebde7;
      }
    </style>
  </defs>
  <title>full_logo</title>
  <g>
    <path class="cls-1" d="M288.06,115.85l-8.53,21.39-4.81,12.07c-2,4.9-7,7.46-13.88,4.71l-14.2-5.64V58.14c2.63,1.1,5.22,2.32,7.69,3.54.51-2.59-1.9-5.82-5.78-7.52a13.1,13.1,0,0,0-1.91-.67V50.22A19.84,19.84,0,0,1,258.71,59a12,12,0,0,1,1.75,6c15.76,9.23,27.82,22.23,29.54,36.44a32.89,32.89,0,0,1,0,6.9A22.31,22.31,0,0,1,288.06,115.85Zm-41.42,32.53L217.47,136.8l-28.73-11.46-17-6.79a17.79,17.79,0,0,1-5.8-3.71c-2.26-2.2-3.26-4.27-3.43-6.44V107a18.68,18.68,0,0,1,1.45-5.42l3.59-9L176,71.18c7.79-19.53,31.76-23.31,55.74-17.65l.23-.27a11.73,11.73,0,0,1,6.13-3.3,18.31,18.31,0,0,1,8.48.26V53.5c-3.42-.9-6.6-.18-7.75,1.87a71.82,71.82,0,0,1,7.75,2.77Z"/>
    <path class="cls-2" d="M150.13,110.87l-109.78.48L149.45,116c0-.1,0-.19,0-.29a20.32,20.32,0,0,1,.68-4.87Zm7.64,19.56H111.07l53.08,4.05a24.91,24.91,0,0,1-6.39-4.05Zm-7.33-9.3-62.79.63,66.19,4.15,0-.07C152.1,124.7,150.42,122.38,150.44,121.13Z"/>
    <path class="cls-1" d="M161.75,116.11a16,16,0,0,0,5,4.1c6.59,3.48,94.28,37.55,94.28,37.55s-81.25-20.95-99.77-29.7a13.53,13.53,0,0,1-7.62-12.32c.06-5.68,2.81-10.85,5.9-17.44,5.5-11.74,13.29-25.06,17.57-33.13L164.85,93.34l-3.36,7.72C159.1,106.54,157.36,110.66,161.75,116.11Z"/>
    <path class="cls-3" d="M216.39,120.33l-3.22-.08c-.84,0-1.54-.46-1.57-1.13l0-1.2c0-.67.65-1.17,1.47-1.32a15.48,15.48,0,0,0,2.9-.51c5-1.93,7,2.78,3.79,4.31C219,120.76,217.66,120.36,216.39,120.33Z"/>
    <path class="cls-3" d="M259.53,99.7a11.88,11.88,0,0,1,5.76,15.68,11.65,11.65,0,0,1-15.63,5.48,11.88,11.88,0,0,1-5.76-15.68A11.64,11.64,0,0,1,259.53,99.7Z"/>
    <polygon class="cls-1" points="255.08 103.5 260.21 106.33 258.71 109.05 261.4 110.61 258.47 115.68 255.88 114.18 254.44 116.8 249.31 113.98 250.81 111.25 248.12 109.69 251.05 104.63 253.64 106.12 255.08 103.5"/>
    <path class="cls-3" d="M224.67,79.51l-1.26,4.38c-1.46,5.08-5.75,3.89-4.34-1l.87-3.46c3.3-13.14-20.25-19.92-23.63-6.8l-1.09,4.22c-1.07,3.73-5.22,2.49-4.21-1l1.6-5.55C197.34,53.86,229.4,63.09,224.67,79.51Z"/>
    <rect class="cls-4" x="189.81" y="78.02" width="4.55" height="4.81" rx="1.22" ry="1.22" transform="translate(70.22 249.28) rotate(-76.9)"/>
    <path class="cls-4" d="M218.05,85.8h2.1A1.22,1.22,0,0,1,221.38,87v2.36a1.23,1.23,0,0,1-1.23,1.23h-2.1a1.22,1.22,0,0,1-1.22-1.22V87a1.23,1.23,0,0,1,1.23-1.23Z" transform="translate(64.8 267.03) rotate(-71.14)"/>
    <path class="cls-3" d="M218.94,119.94a1.51,1.51,0,0,0-.34-.09l-15.42.18c-10,.11-12.27-8.37-12.49-15.52l-.52-17.45,2.92.84.49,13.68c.19,5.32,2.07,15.29,7.58,15.41l16.85.36Z"/>
    <path class="cls-3" d="M183.31,111.05a1.41,1.41,0,0,1,.33.1l8.15,5.56a12.92,12.92,0,0,0,2.44,1.28,8.79,8.79,0,0,1-2.86-4.11l-5.91-4.55-2.15,1.71Zm22.42,4.85c1-.46,3.58-3.63,4.89-5.69l9.22-14.46-2.92-.84-7.2,11.28c-1.95,3.05-5.07,7.94-9.67,9.06a7.9,7.9,0,0,0,3,.66C203.73,116,205.73,115.9,205.73,115.9Z"/>
    <path class="cls-3" d="M223.93,48.11A48.79,48.79,0,0,0,213.35,65.5a12,12,0,0,0-3.72-.59h-.41a52.14,52.14,0,0,1,10.66-17.44"/>
    <path class="cls-3" d="M269.25,66.08c-.66,16.84-5.39,29.67-7.18,32l-.32-.26A12,12,0,0,0,258.44,96c2.22-2.21,7.23-18.25,7.24-31.55"/>
    <path class="cls-3" d="M181.77,110.44l2.58,1.93a1.42,1.42,0,0,0,1.93.08l.78-.92a1.52,1.52,0,0,0-.34-1.94,15.51,15.51,0,0,1-2-2.2c-2.75-4.62-7.21-2.13-5.64,1C179.47,109.17,180.75,109.68,181.77,110.44Z"/>
    <path class="cls-5" d="M276.88,154.66a2.95,2.95,0,1,1,2.92,3A2.94,2.94,0,0,1,276.88,154.66Zm.44,0a2.5,2.5,0,1,0,2.53-2.48A2.5,2.5,0,0,0,277.32,154.66Zm2.43.39h-.58v1.33h-.47l0-3.38h1.38a1,1,0,0,1,1.09,1,1,1,0,0,1-.87,1l.89,1.36h-.58Zm-.57-1.63v1.2h.9a.6.6,0,1,0,0-1.2Z"/>
  </g>
  <g>
    <path class="cls-6" d="M344.06,67.59h31.7q10.72,0,16.35,1.64a28.75,28.75,0,0,1,12.95,7.91,37.56,37.56,0,0,1,8.2,13.92q2.81,8.23,2.81,20.3a56.45,56.45,0,0,1-2.64,18.28,37.88,37.88,0,0,1-9.2,15.18A30.5,30.5,0,0,1,392,151.67q-5.74,1.82-15.35,1.82H344.06ZM361.4,82.12V139h12.95a47.21,47.21,0,0,0,10.49-.82,16,16,0,0,0,7-3.57q2.78-2.52,4.54-8.29t1.76-15.73q0-10-1.76-15.29A19.66,19.66,0,0,0,391.46,87a16.51,16.51,0,0,0-8-4q-3.63-.82-14.24-.82Z"/>
    <path class="cls-6" d="M424.86,111.07q0-13.12,3.93-22a40.45,40.45,0,0,1,8-11.78,33.47,33.47,0,0,1,11.1-7.73,47.18,47.18,0,0,1,18.52-3.4q19,0,30.38,11.78t11.4,32.75q0,20.8-11.31,32.55T466.64,155q-19.16,0-30.47-11.69T424.86,111.07Zm17.87-.59q0,14.59,6.74,22.12a23.17,23.17,0,0,0,34.13.06q6.65-7.47,6.65-22.41,0-14.77-6.47-22T466.58,81q-10.72,0-17.29,7.35T442.73,110.48Z"/>
    <path class="cls-6" d="M574.28,121.91l16.82,5.33q-3.87,14.06-12.86,20.89T555.41,155q-17.11,0-28.12-11.69t-11-32q0-21.45,11.07-33.31t29.12-11.87q15.76,0,25.61,9.32,5.86,5.51,8.79,15.82l-17.17,4.1A17.74,17.74,0,0,0,555.59,81a19.54,19.54,0,0,0-15.5,6.86q-5.95,6.86-5.95,22.21,0,16.29,5.86,23.2a19,19,0,0,0,15.23,6.91,17.38,17.38,0,0,0,11.89-4.39Q572.11,131.34,574.28,121.91Z"/>
    <path class="cls-6" d="M622.92,153.49V82.12H597.43V67.59h68.26V82.12H640.26v71.37Z"/>
    <path class="cls-6" d="M668.8,111.07q0-13.12,3.93-22a40.45,40.45,0,0,1,8-11.78,33.47,33.47,0,0,1,11.1-7.73,47.18,47.18,0,0,1,18.52-3.4q19,0,30.38,11.78t11.4,32.75q0,20.8-11.31,32.55T710.57,155q-19.16,0-30.47-11.69T668.8,111.07Zm17.87-.59q0,14.59,6.74,22.12a23.17,23.17,0,0,0,34.13.06q6.65-7.47,6.65-22.41,0-14.77-6.47-22T710.51,81q-10.72,0-17.29,7.35T686.67,110.48Z"/>
    <path class="cls-6" d="M763.31,153.49V67.59h36.5q13.77,0,20,2.31a19.75,19.75,0,0,1,10,8.23,24.76,24.76,0,0,1,3.75,13.54q0,9.67-5.68,16t-17,7.94a40.54,40.54,0,0,1,9.29,7.21q3.66,3.93,9.87,13.95l10.49,16.76H819.8L807.26,134.8q-6.68-10-9.14-12.63a13.33,13.33,0,0,0-5.21-3.57,28.59,28.59,0,0,0-8.73-1h-3.52v35.86Zm17.34-49.57h12.83q12.48,0,15.59-1.05a9.34,9.34,0,0,0,4.86-3.63,11.18,11.18,0,0,0,1.76-6.45,10.31,10.31,0,0,0-2.31-7,10.63,10.63,0,0,0-6.53-3.37q-2.11-.29-12.66-.29H780.65Z"/>
    <path class="cls-6" d="M843.12,125.54,860,123.9q1.52,8.5,6.18,12.48t12.57,4q8.38,0,12.63-3.54t4.25-8.29a7.82,7.82,0,0,0-1.79-5.19q-1.79-2.14-6.24-3.72-3-1.05-13.89-3.75-13.95-3.46-19.57-8.5a22.35,22.35,0,0,1-7.91-17.29,22.08,22.08,0,0,1,3.72-12.28,23.29,23.29,0,0,1,10.72-8.7,43,43,0,0,1,16.9-3q16.17,0,24.35,7.09t8.58,18.93l-17.34.76q-1.11-6.62-4.78-9.52t-11-2.9q-7.56,0-11.84,3.11a6.26,6.26,0,0,0-2.75,5.33,6.6,6.6,0,0,0,2.58,5.21q3.28,2.76,15.94,5.74T900,106.06a24.13,24.13,0,0,1,9.49,8.73q3.43,5.54,3.43,13.68a25.3,25.3,0,0,1-4.1,13.83,24.57,24.57,0,0,1-11.6,9.58q-7.5,3.13-18.69,3.13-16.29,0-25-7.53T843.12,125.54Z"/>
    <path class="cls-7" d="M987.43,153.49V82.12H961.94V67.59h68.26V82.12h-25.43v71.37Z"/>
    <path class="cls-7" d="M1033.31,111.07q0-13.12,3.93-22a40.45,40.45,0,0,1,8-11.78,33.47,33.47,0,0,1,11.1-7.73,47.18,47.18,0,0,1,18.52-3.4q19,0,30.38,11.78t11.4,32.75q0,20.8-11.31,32.55T1075.09,155q-19.16,0-30.47-11.69T1033.31,111.07Zm17.87-.59q0,14.59,6.74,22.12a23.17,23.17,0,0,0,34.13.06q6.65-7.47,6.65-22.41,0-14.77-6.47-22T1075,81q-10.72,0-17.29,7.35T1051.18,110.48Z"/>
    <path class="cls-7" d="M1191.09,153.49V117.34l-31.46-49.75H1180l20.21,34,19.8-34h20l-31.58,49.86v36Z"/>
    <path class="cls-7" d="M1242.66,111.07q0-13.12,3.93-22a40.45,40.45,0,0,1,8-11.78,33.46,33.46,0,0,1,11.1-7.73,47.17,47.17,0,0,1,18.52-3.4q19,0,30.38,11.78t11.4,32.75q0,20.8-11.31,32.55T1284.44,155q-19.16,0-30.47-11.69T1242.66,111.07Zm17.87-.59q0,14.59,6.74,22.12a23.17,23.17,0,0,0,34.13.06q6.65-7.47,6.65-22.41,0-14.77-6.47-22T1284.38,81q-10.72,0-17.29,7.35T1260.53,110.48Z"/>
    <path class="cls-7" d="M1337,67.59h17.34v46.52q0,11.07.64,14.36a13.91,13.91,0,0,0,5.3,8.47q4.19,3.19,11.46,3.19t11.13-3a11.93,11.93,0,0,0,4.51-7.41,96.77,96.77,0,0,0,.76-14.59V67.59h17.34v45.12q0,15.47-1.41,21.86a24.19,24.19,0,0,1-5.19,10.78,26.19,26.19,0,0,1-10.11,7q-6.33,2.61-16.52,2.61-12.3,0-18.66-2.84a26.68,26.68,0,0,1-10-7.38,23.66,23.66,0,0,1-4.86-9.52q-1.7-7.38-1.7-21.8Z"/>
  </g>
</svg>
