<svg id="Layer_1" data-name="Layer 1" xmlns="http://www.w3.org/2000/svg" viewBox="0 0 1355.05 207.02">
  <defs>
    <style>
      .cls-1 {
        fill: #0ebde7;
      }

      .cls-2 {
        fill: #878787;
      }
    </style>
  </defs>
  <title>slogan</title>
  <g>
    <path class="cls-1" d="M111.3,131.73,86.84,98.24v33.49H71.92V73.86H87.27L110.7,105.7V73.86h15v57.87Z"/>
    <path class="cls-1" d="M131.35,110.74c0-12.15,9.11-22,22.21-22C166,88.79,175,97.9,175,112.13v3H145.14c1,3.73,4.43,6.85,10.5,6.85,2.95,0,7.81-1.3,10.24-3.56l5.81,8.76c-4.16,3.73-11.11,5.55-17.53,5.55C141.24,132.77,131.35,124.36,131.35,110.74Zm22.21-11.19c-5.81,0-8.07,3.47-8.59,6.51h17.27C161.89,103.1,159.72,99.54,153.56,99.54Z"/>
    <path class="cls-1" d="M177.16,110.74c0-12.15,9.11-22,22.21-22,12.41,0,21.43,9.11,21.43,23.34v3H191c1,3.73,4.43,6.85,10.5,6.85,2.95,0,7.81-1.3,10.24-3.56l5.81,8.76c-4.16,3.73-11.11,5.55-17.53,5.55C187.05,132.77,177.16,124.36,177.16,110.74Zm22.21-11.19c-5.81,0-8.07,3.47-8.59,6.51H208C207.7,103.1,205.53,99.54,199.37,99.54Z"/>
    <path class="cls-1" d="M253.86,131.73v-4.86a16,16,0,0,1-12.41,5.9c-10.32,0-18.48-7.81-18.48-22,0-13.71,8-22,18.48-22a15.45,15.45,0,0,1,12.41,6V73.86h13.27v57.87Zm0-14.58V104.32a10.92,10.92,0,0,0-8.07-3.73c-5.29,0-9.2,3.9-9.2,10.15s3.9,10.24,9.2,10.24A11,11,0,0,0,253.86,117.16Z"/>
    <path class="cls-1" d="M320.41,131.73v-4.16c-2.6,3.12-7.63,5.21-13,5.21-6.42,0-14.4-4.42-14.4-13.79,0-10.15,8-13.53,14.4-13.53,5.55,0,10.5,1.82,13,4.95v-4.16c0-3.64-3.12-6.16-8.5-6.16a18.33,18.33,0,0,0-11.71,4.51l-4.95-9.28c5.38-4.6,12.58-6.51,19-6.51,10.06,0,19.52,3.73,19.52,16.74v26.2Zm0-10.76v-3.73c-1.39-2-4.51-2.95-7.46-2.95-3.47,0-6.68,1.56-6.68,4.86s3.21,4.86,6.68,4.86C315.9,124,319,123,320.41,121Z"/>
    <path class="cls-1" d="M390.43,131.73v-4.86a16,16,0,0,1-12.41,5.9c-10.32,0-18.48-7.81-18.48-22,0-13.71,8-22,18.48-22a15.45,15.45,0,0,1,12.41,6V73.86H403.7v57.87Zm0-14.58V104.32a10.92,10.92,0,0,0-8.07-3.73c-5.29,0-9.2,3.9-9.2,10.15s3.9,10.24,9.2,10.24A11,11,0,0,0,390.43,117.16Z"/>
    <path class="cls-1" d="M409.08,110.74c0-11.8,8.5-22,22.73-22,14.4,0,22.91,10.15,22.91,22s-8.5,22-22.91,22C417.59,132.77,409.08,122.54,409.08,110.74Zm31.93,0c0-5.55-3.3-10.15-9.2-10.15-5.73,0-9,4.6-9,10.15s3.3,10.24,9,10.24C437.71,121,441,116.38,441,110.74Z"/>
    <path class="cls-1" d="M457.32,110.74c0-13.1,9.72-22,22.82-22,9.11,0,14.66,4,17.18,7.72l-8.68,8.07a9.16,9.16,0,0,0-7.9-4c-5.55,0-9.8,3.82-9.8,10.15S475.2,121,480.75,121a9.43,9.43,0,0,0,7.9-4.08l8.68,8.16c-2.52,3.64-8.07,7.72-17.18,7.72C467,132.77,457.32,123.84,457.32,110.74Z"/>
    <path class="cls-1" d="M504.44,120.45V101.37H497.5V89.83h6.94V78.37H517.8V89.83h8.5v11.54h-8.5v15.36c0,2.43,1.39,4.25,3.64,4.25a5.19,5.19,0,0,0,3.38-1l2.6,10.06c-1.65,1.56-4.95,2.78-9.89,2.78C509,132.77,504.44,128.52,504.44,120.45Z"/>
    <path class="cls-1" d="M528.47,110.74c0-11.8,8.5-22,22.73-22,14.4,0,22.91,10.15,22.91,22s-8.5,22-22.91,22C537,132.77,528.47,122.54,528.47,110.74Zm31.93,0c0-5.55-3.3-10.15-9.2-10.15-5.73,0-9,4.6-9,10.15s3.3,10.24,9,10.24C557.1,121,560.4,116.38,560.4,110.74Z"/>
    <path class="cls-1" d="M579.4,131.73V89.83h13.36v5.12a18.35,18.35,0,0,1,13.1-6.25v12.84a11.23,11.23,0,0,0-3.3-.35c-3.47,0-8.07,1.48-9.8,3.82v26.72Z"/>
    <path class="cls-1" d="M617.15,105.18c0-9.8,11.19-11.28,11.19-15.62,0-1.91-1.39-3.38-5.12-3.38a12.52,12.52,0,0,0-9.11,4.51l-8.33-9.54A25.58,25.58,0,0,1,624.87,73c11.45,0,18.57,5.55,18.57,13.88,0,12.41-13.45,13.36-13.45,19.87a5.08,5.08,0,0,0,1.3,3.47l-11.54,2.95A12.25,12.25,0,0,1,617.15,105.18Zm-.26,19.35a8.16,8.16,0,1,1,8.16,8.16A8.24,8.24,0,0,1,616.88,124.53Z"/>
    <path class="cls-2" d="M707.61,131.73,705.3,87.44l-21.9,44.29H676l-3.54-54.91h7.41l2.06,45.77,22.64-45.77h5.76l2.47,45.77L735,76.82h7.82L715,131.73Z"/>
    <path class="cls-2" d="M734.69,115.1c0-13.17,9.8-24.12,22.39-24.12,10.54,0,17.12,7.24,17.12,17.37a30.65,30.65,0,0,1-.66,5.52H741.19a11.54,11.54,0,0,0-.17,1.89c0,6.17,4.53,11.85,13.5,11.85a18.56,18.56,0,0,0,11.44-4l2.14,4.36a24.39,24.39,0,0,1-14,4.69C742,132.72,734.69,125.64,734.69,115.1Zm33.83-5.84c0-.33.08-1.07.08-1.48,0-6.67-4.2-11.69-12.1-11.69-7.24,0-13.5,6.17-14.74,13.17h26.75Z"/>
    <path class="cls-2" d="M787.46,94.19l-2.55-2.72c3-1.48,6-4.28,6.92-6.92h-.66a3.49,3.49,0,0,1-3.46-3.7A4.92,4.92,0,0,1,792.56,76c2.39,0,4.36,1.65,4.36,4.77C796.92,86,792.56,91.56,787.46,94.19Z"/>
    <path class="cls-2" d="M794.86,131.73,803.67,92h6.17l-1.4,6c4-4.45,8-6.92,14.82-6.92l-1.4,6.42a12.25,12.25,0,0,0-3.13-.33c-4.61,0-9,3.13-11.52,6.5L801,131.73Z"/>
    <path class="cls-2" d="M821.94,115.1c0-13.17,9.8-24.12,22.39-24.12,10.54,0,17.12,7.24,17.12,17.37a30.65,30.65,0,0,1-.66,5.52H828.45a11.54,11.54,0,0,0-.17,1.89c0,6.17,4.53,11.85,13.5,11.85a18.56,18.56,0,0,0,11.44-4l2.14,4.36a24.39,24.39,0,0,1-14,4.69C829.27,132.72,821.94,125.64,821.94,115.1Zm33.83-5.84c0-.33.08-1.07.08-1.48,0-6.67-4.2-11.69-12.1-11.69-7.24,0-13.5,6.17-14.74,13.17h26.75Z"/>
    <path class="cls-2" d="M886.31,115c0-12.51,9.38-24,22.14-24,11.36,0,18.19,7.16,18.19,17.62,0,12.6-9.38,24.12-22.14,24.12C893.15,132.72,886.31,125.56,886.31,115Zm33.83-6.17c0-7.49-4.36-12.35-11.85-12.35-9,0-15.48,9-15.48,18.36,0,7.49,4.36,12.35,11.85,12.35C913.73,127.21,920.15,118.23,920.15,108.85Z"/>
    <path class="cls-2" d="M957.11,131.73l5.76-26.1a14.3,14.3,0,0,0,.41-2.8c0-4.53-3.54-6.34-8.23-6.34s-9.22,3-12.27,6.26l-6.42,29h-6.17L939,92h6.17l-1.32,5.76c3.46-3.38,8.4-6.75,14.08-6.75,7,0,11.85,3.46,11.85,9.8a16.71,16.71,0,0,1-.49,3.38l-6.09,27.58Z"/>
    <path class="cls-2" d="M995.22,115c0-12.51,9.38-24,22.14-24,11.36,0,18.19,7.16,18.19,17.62,0,12.6-9.38,24.12-22.14,24.12C1002,132.72,995.22,125.56,995.22,115Zm33.83-6.17c0-7.49-4.36-12.35-11.85-12.35-9,0-15.48,9-15.48,18.36,0,7.49,4.36,12.35,11.85,12.35C1022.63,127.21,1029.05,118.23,1029.05,108.85Z"/>
    <path class="cls-2" d="M1054.07,92l-5.76,26.1a13.49,13.49,0,0,0-.41,2.72c0,4.61,3.54,6.42,8.23,6.42,4.53,0,9.14-3,12.18-6.26l6.42-29h6.17l-8.81,39.76h-6.17l1.32-5.76c-3.46,3.38-8.31,6.75-14,6.75-7.08,0-11.85-3.46-11.85-9.8a25.08,25.08,0,0,1,.41-3.37L1047.9,92Z"/>
    <path class="cls-2" d="M1082.8,131.73,1091.61,92h6.17l-1.4,6c4-4.45,8-6.92,14.82-6.92l-1.4,6.42a12.26,12.26,0,0,0-3.13-.33c-4.61,0-9,3.13-11.52,6.5L1089,131.73Z"/>
    <path class="cls-2" d="M1162.4,131.73l-3.29-31.94-17.45,31.94h-6.17L1131.61,92h6.26l2.55,31.69L1158,92h5.35l3.38,31.69L1183.39,92h6.75l-21.49,39.76Z"/>
    <path class="cls-2" d="M1223,98.23l1.4-6.26h6.17l-8.81,39.76h-6.17l1.24-5.68a16.49,16.49,0,0,1-13.09,6.67c-9.05,0-15.39-6-15.39-16.38,0-12.92,8-25.35,20.83-25.35C1215.33,91,1220.35,93.87,1223,98.23Zm-28.15,17c0,7.41,4.53,12,11.11,12,5,0,9.55-3.13,12.18-6.75l3.87-17.53c-2-3.54-6.26-6.42-12-6.42C1200.92,96.5,1194.83,105.64,1194.83,115.19Z"/>
    <path class="cls-2" d="M1229.07,141.45a10.38,10.38,0,0,0,4,.66c2.14,0,3.79-.91,5.84-4l4-6.17-7.57-40h6.5l5.93,32.6,20.5-32.6h6.92l-30.62,47.83c-3.46,5.52-7.24,8.07-12.35,8.07a14.7,14.7,0,0,1-5.27-.91Z"/>
    <path class="cls-2" d="M1270.73,128.36a4.94,4.94,0,0,1,4.94-4.86,4.15,4.15,0,0,1,4.12,4.2,4.88,4.88,0,0,1-4.94,4.86A4.09,4.09,0,0,1,1270.73,128.36Zm4.53-12,7.41-39.51h7.74l-10,39.51Z"/>
  </g>
</svg>
